<?xml version="1.0" encoding="utf-8"?>
<!-- Generator: Adobe Illustrator 18.1.1, SVG Export Plug-In . SVG Version: 6.00 Build 0)  -->
<svg version="1.1" id="Layer_1" xmlns="http://www.w3.org/2000/svg" xmlns:xlink="http://www.w3.org/1999/xlink" x="0px" y="0px"
	 viewBox="0 0 224.8 324.2" enable-background="new 0 0 224.8 324.2" xml:space="preserve">
<g>
	<g>
		<path d="M12.6,307.5c40.7-78.1,73.2-160.1,114.7-237.7c11.2-20.9,22.7-41.7,35.4-61.7c-3.1-0.8-6.2-1.7-9.3-2.5
			c0.3,2.3,0.6,4.7,0.8,7c0.2,2.2-0.7,3.2,0.7,0.1c1.9-0.8,3.8-1.5,5.6-2.3c0,0,0,0-0.1,0c1,0.8,2,1.5,3,2.3c0.9,1.8-0.1-1.4-0.2-2
			c-0.1-0.8,0-1.8-0.2-2.5c-0.3-1,0.3-1.4-0.4-0.1c-3.1-0.8-6.2-1.7-9.3-2.5c2.4,20.3,2.4,40.7,2.2,61.2
			c-0.2,20.9-0.8,41.8-1.6,62.7c-1.7,41.4-4.7,82.7-8.8,124c-2.2,21.7-3.3,43.7-11.2,64.2c2.8-0.7,5.6-1.5,8.4-2.2
			c-17-16.4-33-34-47.6-52.6c-6.6-8.4-12.6-17.2-18.9-25.8c-5.9-8.1-11.8-16.1-16.8-24.8c-2.6-4.4-4.9-8.9-6.9-13.6
			c-1.8-4.3-5.1-11.1-4-15.9c1.1-4.5,5.6-8.7,8.9-11.7c3.7-3.3,7.8-6.1,12-8.7c18.2-11,37.2-21.4,56.4-30.5
			c12.4-5.9,24.9-11.8,38-15.9c6.4-2,13-2.7,19.6-3.5c6.8-0.8,13.5-1.3,20.2,0.3c-1.2-1.6-2.4-3.2-3.7-4.8c-0.7,5.8-5.4,9.5-10,12.5
			c-5.2,3.3-10.7,6.5-16.2,9.1c-6.9,3.2-13.9,6-20.7,9.3c-6.5,3.1-13.7,4.6-20.3,7.6c-4.7,2.2-2.1,9.2,2.5,9.3
			c3.1,0.1,6.7,0.5,9.6-0.9c2.4-1.1,3.1-4.7,1.8-6.8c-2.3-3.7-9.1-3.3-12.8-2.1c-5.4,1.7-4.4,9.7,1.3,9.8c17,0.5,33.6,4.3,49.2,11
			c12.2,5.3,28.5,14.1,29.4,29.2c1,16.1-18.5,20.3-30.6,22.8c-17.6,3.7-35.4,6.8-53.3,8.8c-6.3,0.7-6.4,10.7,0,10
			c16.6-1.9,33.2-4.4,49.5-7.8c12.9-2.7,28-5,37.4-15.1c8.7-9.3,8.6-23,2.3-33.6c-6.9-11.6-19.8-18.7-31.9-23.8
			c-16.6-7-34.1-11-52.2-11.5c0.4,3.3,0.9,6.5,1.3,9.8c1-0.3,1.7-0.3,2.8-0.3c0.9,0,2.4,0.3,1.6,0.1c-1-0.8-2-1.5-3-2.3
			c0,0,0,0,0,0.1c0.6-2.3,1.2-4.6,1.8-6.8c2.5-1.2,1.3-0.3-0.1-0.5c-1.5-0.1-3,0-4.5,0c0.8,3.1,1.7,6.2,2.5,9.3
			c7.7-3.5,15.9-5.5,23.5-9.2c7.9-3.8,16.2-6.5,23.7-10.9c11.3-6.5,23.2-12.8,24.9-27c0.3-2.1-1.7-4.3-3.7-4.8
			c-12.1-2.9-25.5-1-37.5,1.2c-12.6,2.3-24.6,8.2-36.2,13.4c-22.2,10-43.3,21.8-64.5,33.8c-8.9,5.1-17.5,11-24,19.1
			c-3.1,3.9-6.1,8.5-6.1,13.7c-0.1,5.7,2.9,12.4,5,17.6c8.3,20.3,22.6,37.6,35.3,55.4c16.7,23.5,36.4,45.2,57.2,65.2
			c2.9,2.8,7,1.3,8.4-2.2c6.9-17.9,8.8-37.2,10.6-56.2c1.9-20.6,4-41.2,5.5-61.8c3.2-42.1,5.1-84.4,5.8-126.7
			c0.4-23.4,0.7-46.8-2.1-70.1c-0.5-4.3-7-7.6-9.3-2.5c-2.2,4.7-1.6,14.8,3.8,17c1.9,0.8,4.8-0.5,5.6-2.3c1.7-3.6,0.3-8.5-0.1-12.2
			c-0.6-4.8-6.5-7-9.3-2.5c-2.7,4.2-5.5,8.2-8.1,12.6c-2.7,4.7-5.4,9.4-8,14c-5.2,9.2-10.3,18.4-15.4,27.7
			c-10.1,18.7-20,37.6-29.1,56.8c-19,40.3-37.2,81-56.3,121.3C26.5,258,15.5,280.3,4,302.5C1,308.2,9.6,313.2,12.6,307.5L12.6,307.5
			z"/>
	</g>
</g>
</svg>
