<?xml version="1.0" encoding="utf-8"?>
<!-- Generator: Adobe Illustrator 18.1.1, SVG Export Plug-In . SVG Version: 6.00 Build 0)  -->
<svg version="1.1" xmlns="http://www.w3.org/2000/svg" xmlns:xlink="http://www.w3.org/1999/xlink" x="0px" y="0px"
	 viewBox="0 0 960 560" enable-background="new 0 0 960 560" xml:space="preserve">
<g id="Layer_3">
	<rect fill="#575759" width="960" height="560"/>
</g>
<g id="Layer_2">
	<polygon fill="#3F4042" points="0,560 0,325 39,222 74,308 90,257 137,193 184,272 247,272 311,44 325,52 351,151 375,141 
		407.4,234.3 506.5,231.4 566,188 609,195 676,179 703,208 732,259 756,210 782,246 854,213 914,234 960,274 960,560 	"/>
</g>
<g id="Layer_1">
	<polygon fill="#484849" points="0,560 68,361 90,428 132,264 205,91 284,280 364,394 417,199 432,82 485,141 518,280 560,222 
		605,313 698,395 786,182 845,321 860,280 908,367 960,380 960,560 	"/>
</g>
</svg>
